<?xml version="1.0" encoding="utf-8"?>
<!DOCTYPE svg PUBLIC "-//W3C//DTD SVG 1.0//EN" "http://www.w3.org/TR/2001/REC-SVG-20010904/DTD/svg10.dtd">
<svg version="1.0" xmlns="http://www.w3.org/2000/svg" width="21px" height="20px" viewBox="0 0 21 20" preserveAspectRatio="xMidYMid meet">
 <g fill="#ff5656">
  <path d="M3.4 16.6 c-4.6 -4.6 -4.6 -8.6 0 -13.2 3.5 -3.5 8.3 -4.5 11.5 -2.5 1 0.7 0 0.9 -3.1 0.8 -3.7 -0.2 -5.2 0.3 -7.2 2.2 -6.8 6.4 0.1 17 9.1 14 4.4 -1.4 6.8 -6.4 5.2 -10.6 l-1 -2.8 -3.1 5 c-4.2 7 -4.3 7 -6.8 3.5 -2.6 -3.6 -1.9 -5.4 0.8 -2 l1.9 2.3 3.1 -5.2 c1.8 -2.8 3.6 -5.1 4 -5.1 1.1 0 3.2 4.6 3.2 7 0 3.3 -2.3 7.1 -5.1 8.6 -4.8 2.4 -8.7 1.8 -12.5 -2z"/>
 </g>
</svg>